<svg xmlns="http://www.w3.org/2000/svg" width="100" height="100" fill="none" viewBox="0 0 100 100">
  <g clip-path="url(#a)">
    <path fill="#000" d="M87.5 18.75H56.25V12.5A6.25 6.25 0 0 0 50 6.25H12.5a6.25 6.25 0 0 0-6.25 6.25V75a6.25 6.25 0 0 0 6.25 6.25h31.25v6.25A6.25 6.25 0 0 0 50 93.75h37.5a6.25 6.25 0 0 0 6.25-6.25V25a6.25 6.25 0 0 0-6.25-6.25Zm-75 28.125h19.281l-8.062 8.094 4.406 4.406L43.75 43.75 28.125 28.125l-4.406 4.406 8.062 8.094H12.5V12.5H50V75H12.5V46.875ZM50 87.5v-6.25A6.25 6.25 0 0 0 56.25 75V25H87.5v28.125H68.219l8.062-8.094-4.406-4.406L56.25 56.25l15.625 15.625 4.406-4.406-8.062-8.094H87.5V87.5H50Z"/>
  </g>
  <defs>
    <clipPath id="a">
      <path fill="#fff" d="M0 0h100v100H0z"/>
    </clipPath>
  </defs>
</svg>
