<svg xmlns="http://www.w3.org/2000/svg" width="104" height="104" fill="none" viewBox="0 0 104 104">
  <path stroke="#000" stroke-linecap="round" stroke-linejoin="round" stroke-width="3" d="M33.557 42H13.3c-2.972-.023-5.833 1.057-7.952 3.002C3.228 46.948 2.025 49.6 2 52.372V91.63c.055 5.774 5.113 10.415 11.3 10.366h20.257c2.972.023 5.833-1.056 7.952-3.002 2.12-1.945 3.324-4.596 3.348-7.37v-39.25c-.024-2.774-1.228-5.425-3.348-7.37-2.119-1.946-4.98-3.026-7.952-3.003Zm0-39.996H13.3C7.238 1.847 2.183 6.299 2 11.957v6.759c.183 5.657 5.238 10.11 11.3 9.953h20.257c6.062.157 11.117-4.296 11.3-9.953v-6.76c-.183-5.657-5.238-10.109-11.3-9.952ZM70.443 62h20.25c2.973.024 5.836-1.055 7.956-3 2.121-1.946 3.327-4.598 3.351-7.373v-39.25c-.024-2.774-1.229-5.425-3.348-7.37-2.12-1.946-4.98-3.026-7.952-3.003H70.443c-2.972-.023-5.833 1.057-7.952 3.003-2.12 1.945-3.324 4.596-3.348 7.37v39.25c.024 2.774 1.228 5.425 3.348 7.37 2.119 1.946 4.98 3.025 7.952 3.003Zm0 39.996h20.25c6.065.16 11.124-4.292 11.307-9.953v-6.76c-.183-5.657-5.238-10.108-11.3-9.952H70.443c-6.062-.156-11.117 4.295-11.3 9.953v6.753c.178 5.66 5.235 10.115 11.3 9.959Z" clip-rule="evenodd"/>
</svg>
