<svg xmlns="http://www.w3.org/2000/svg" width="100" height="100" fill="none" viewBox="0 0 100 100">
  <path fill="#333" fill-rule="evenodd" d="M79.09 36.141c-1.637-4.114-4.148-7.864-7.535-11.25l7.091-7.102c5.268 5.271 8.898 11.222 10.888 17.852 1.216 4.04 1.826 8.331 1.83 12.875v.012c-.002 6.643-1.301 12.745-3.898 18.306-2.09 4.497-5.027 8.641-8.808 12.432l-7.115-7.114c2.597-2.598 4.677-5.409 6.24-8.431 2.366-4.577 3.548-9.641 3.545-15.193v-.012c.006-4.436-.74-8.56-2.239-12.375Z" clip-rule="evenodd"/>
  <path fill="#333" fill-rule="evenodd" d="M66.588 29.96c1.712 1.723 3.137 3.568 4.273 5.534h.012c2.236 3.867 3.354 8.2 3.353 13v.022c-.001 4.984-1.202 9.469-3.603 13.455h-.011a27.752 27.752 0 0 1-4.081 5.16v-.012l-.011.011-7.115-7.114a19.27 19.27 0 0 0 1.285-1.465v-.012c2.31-2.866 3.469-6.207 3.478-10.023v-.022c-.004-4.48-1.587-8.302-4.751-11.466l7.126-7.136a.754.754 0 0 1 .045.068ZM42.006 42.573c1.63-1.63 3.599-2.445 5.91-2.443 2.314-.002 4.288.812 5.92 2.443l.012.012c1.624 1.63 2.434 3.6 2.432 5.909v.022c-.003 2.305-.818 4.27-2.443 5.898a.04.04 0 0 0-.012.023c-1.633 1.615-3.602 2.422-5.91 2.42-2.307.002-4.274-.809-5.898-2.432l-.011-.01c-1.624-1.625-2.438-3.588-2.444-5.887v-.035c-.002-2.302.805-4.268 2.42-5.897l.024-.023Zm-20.423 5.921c-.001-.322.003-.64.012-.955.217-6.86 2.778-12.742 7.682-17.647l7.115 7.113c-3.168 3.171-4.748 7-4.74 11.489v.034c-.002.5.017.993.057 1.477v.011c.315 3.846 1.876 7.175 4.683 9.99a.496.496 0 0 0 .023.022l-7.126 7.114-.012-.012c-5.124-5.134-7.689-11.335-7.694-18.602v-.034Z" clip-rule="evenodd"/>
  <path fill="#333" fill-rule="evenodd" d="M4.82 42.516c1.195-9.46 5.31-17.707 12.342-24.739l7.114 7.114c-5.715 5.711-8.93 12.457-9.649 20.239-.1 1.11-.149 2.242-.147 3.398 0 9.22 3.258 17.094 9.773 23.624l.012.012-7.115 7.113-.01-.011C8.67 70.778 4.438 60.532 4.443 48.527c.002-2.056.127-4.06.376-6.011Z" clip-rule="evenodd"/>
</svg>
