<svg xmlns="http://www.w3.org/2000/svg" width="100" height="100" fill="none" viewBox="0 0 100 100">
  <g clip-path="url(#a)">
    <path fill="#000" d="M62.5 54.166V20.833c0-6.917-5.584-12.5-12.5-12.5-6.917 0-12.5 5.583-12.5 12.5v33.333c-5.042 3.792-8.334 9.875-8.334 16.667 0 11.5 9.334 20.833 20.834 20.833s20.833-9.333 20.833-20.833c0-6.792-3.291-12.875-8.333-16.667Zm-16.667-8.333v-25A4.179 4.179 0 0 1 50 16.666a4.179 4.179 0 0 1 4.166 4.167V25H50v4.166h4.166V37.5H50v4.166h4.166v4.167h-8.333Z"/>
  </g>
  <defs>
    <clipPath id="a">
      <path fill="#fff" d="M0 0h100v100H0z"/>
    </clipPath>
  </defs>
</svg>
