<svg xmlns="http://www.w3.org/2000/svg" width="100" height="100" fill="none" viewBox="0 0 100 100">
  <path fill="#000" d="M63.779 47.831c0 5.484-1.033 10.15-3.098 13.996-2.049 3.847-4.845 6.785-8.39 8.815-3.528 2.014-7.495 3.02-11.902 3.02-4.439 0-8.422-1.015-11.95-3.044-3.529-2.03-6.317-4.969-8.366-8.815C18.024 57.956 17 53.297 17 47.83c0-5.484 1.024-10.149 3.073-13.996 2.049-3.847 4.837-6.777 8.366-8.79C31.966 23.015 35.95 22 40.389 22c4.406 0 8.374 1.015 11.902 3.045 3.545 2.013 6.341 4.943 8.39 8.79 2.065 3.847 3.098 8.512 3.098 13.996Zm-10.707 0c0-3.552-.529-6.548-1.586-8.987-1.04-2.439-2.512-4.289-4.414-5.549-1.903-1.26-4.13-1.89-6.683-1.89s-4.78.63-6.682 1.89c-1.903 1.26-3.382 3.11-4.44 5.55-1.04 2.438-1.56 5.434-1.56 8.986 0 3.552.52 6.548 1.56 8.987 1.058 2.44 2.537 4.289 4.44 5.55 1.902 1.26 4.13 1.89 6.682 1.89 2.553 0 4.78-.63 6.683-1.89 1.902-1.261 3.374-3.11 4.414-5.55 1.057-2.44 1.586-5.435 1.586-8.987ZM68.64 78v-3.09l7.17-6.683a27.217 27.217 0 0 0 1.535-1.604c.42-.476.737-.94.954-1.396a3.49 3.49 0 0 0 .324-1.496c0-.594-.134-1.105-.403-1.534a2.655 2.655 0 0 0-1.102-1c-.465-.238-.993-.357-1.583-.357-.616 0-1.154.125-1.613.376a2.584 2.584 0 0 0-1.062 1.08c-.25.468-.374 1.026-.374 1.673h-4.042c0-1.327.298-2.479.895-3.456.597-.977 1.433-1.732 2.508-2.267 1.075-.535 2.314-.802 3.718-.802 1.442 0 2.698.257 3.766.772 1.076.508 1.912 1.215 2.508 2.12.597.904.895 1.94.895 3.108 0 .766-.15 1.522-.452 2.268-.295.746-.823 1.574-1.584 2.485-.76.904-1.832 1.99-3.216 3.258l-2.94 2.901v.139H83V78H68.64Z"/>
</svg>
