<svg xmlns="http://www.w3.org/2000/svg" width="100" height="100" fill="none" viewBox="0 0 100 100">
  <path fill="#000" d="M19 63.149V33h11.9c2.287 0 4.236.437 5.846 1.31 1.61.864 2.837 2.066 3.681 3.607.855 1.53 1.282 3.297 1.282 5.3 0 2.001-.432 3.768-1.296 5.299-.864 1.53-2.116 2.723-3.756 3.577-1.63.854-3.603 1.28-5.92 1.28h-7.584v-5.107h6.553c1.227 0 2.239-.211 3.034-.633.805-.432 1.404-1.026 1.797-1.782.402-.765.603-1.643.603-2.635 0-1-.2-1.874-.603-2.62-.393-.756-.992-1.34-1.797-1.752-.805-.422-1.826-.633-3.063-.633h-4.3V63.15H19ZM45.85 33h7.864l8.306 20.256h.354L70.68 33h7.864v30.149h-6.186V43.526h-.25L64.303 63H60.09l-7.805-19.55h-.25v19.7H45.85V33ZM88 48.763V67h-3.857V52.423h-.107l-4.178 2.618v-3.42l4.516-2.858H88Z"/>
</svg>
