<svg xmlns="http://www.w3.org/2000/svg" width="100" height="100" fill="none" viewBox="0 0 100 100">
  <path fill="#000" d="M17 75V34.756h7.963v4.916h.36c.354-.787.866-1.588 1.535-2.4.683-.826 1.568-1.512 2.655-2.059 1.1-.559 2.464-.838 4.095-.838 2.123 0 4.082.559 5.877 1.677 1.795 1.105 3.23 2.776 4.304 5.011 1.074 2.223 1.611 5.012 1.611 8.365 0 3.265-.524 6.022-1.573 8.27-1.037 2.236-2.452 3.932-4.247 5.088-1.782 1.143-3.78 1.715-5.991 1.715-1.567 0-2.9-.26-4-.782-1.087-.52-1.979-1.175-2.674-1.962-.695-.8-1.226-1.607-1.592-2.42h-.247V75H17Zm7.906-25.61c0 1.74.24 3.259.72 4.554.48 1.296 1.176 2.306 2.086 3.03.91.712 2.016 1.067 3.317 1.067 1.315 0 2.427-.362 3.337-1.086.91-.737 1.599-1.753 2.067-3.049.48-1.308.72-2.813.72-4.516 0-1.69-.234-3.176-.701-4.459-.468-1.283-1.157-2.286-2.067-3.01-.91-.724-2.029-1.086-3.356-1.086-1.314 0-2.426.349-3.336 1.048-.898.698-1.587 1.69-2.067 2.972-.48 1.283-.72 2.795-.72 4.535Zm26.03 14.634V25h8.21v16.101H75.81V25H84v39.024h-8.19v-16.12H59.145v16.12h-8.209Z"/>
</svg>
