<svg xmlns="http://www.w3.org/2000/svg" width="100" height="100" fill="none" viewBox="0 0 100 100">
  <path fill="#000" d="M30.105 41.502c-.123-1.242-.652-2.207-1.585-2.895-.933-.688-2.2-1.032-3.8-1.032-1.086 0-2.004.154-2.752.462-.749.298-1.323.713-1.723 1.247a3.005 3.005 0 0 0-.585 1.818c-.02.564.098 1.057.354 1.478.267.42.63.785 1.092 1.093.462.298.995.56 1.6.786.605.215 1.251.4 1.938.554l2.83.678a19.95 19.95 0 0 1 3.784 1.232c1.149.513 2.143 1.145 2.984 1.894a7.87 7.87 0 0 1 1.954 2.649c.472 1.016.713 2.182.723 3.496-.01 1.93-.503 3.603-1.477 5.02-.964 1.407-2.358 2.5-4.184 3.28-1.815.77-4.004 1.156-6.568 1.156-2.543 0-4.758-.39-6.645-1.17-1.877-.781-3.343-1.936-4.4-3.466-1.045-1.54-1.594-3.444-1.645-5.713h6.445c.072 1.057.374 1.94.908 2.648.543.699 1.266 1.227 2.168 1.587.913.349 1.944.523 3.092.523 1.128 0 2.108-.164 2.938-.493.841-.328 1.492-.785 1.954-1.37a3.167 3.167 0 0 0 .692-2.018c0-.708-.21-1.303-.63-1.786-.41-.483-1.016-.893-1.816-1.232-.79-.339-1.759-.647-2.907-.924l-3.43-.862c-2.656-.647-4.753-1.659-6.292-3.034-1.538-1.376-2.302-3.23-2.291-5.56-.01-1.91.497-3.578 1.522-5.005 1.036-1.427 2.456-2.541 4.261-3.342C20.42 32.401 22.47 32 24.767 32c2.338 0 4.379.4 6.122 1.201 1.754.801 3.118 1.915 4.092 3.342.974 1.427 1.476 3.08 1.507 4.959h-6.383Zm40.243 6.699c0 3.44-.651 6.365-1.954 8.778-1.292 2.413-3.056 4.256-5.291 5.529-2.225 1.263-4.727 1.894-7.507 1.894-2.799 0-5.311-.636-7.537-1.91-2.225-1.273-3.984-3.115-5.276-5.528-1.292-2.413-1.938-5.334-1.938-8.763 0-3.44.646-6.365 1.938-8.778 1.292-2.413 3.051-4.25 5.276-5.513 2.226-1.273 4.738-1.91 7.538-1.91 2.779 0 5.28.636 7.506 1.91 2.235 1.262 4 3.1 5.291 5.513 1.303 2.413 1.954 5.339 1.954 8.778Zm-6.753 0c0-2.228-.333-4.107-1-5.636-.656-1.53-1.584-2.69-2.784-3.48-1.2-.791-2.605-1.187-4.215-1.187-1.61 0-3.014.396-4.214 1.186-1.2.79-2.133 1.95-2.8 3.48-.656 1.53-.984 3.41-.984 5.637 0 2.228.328 4.107.984 5.636.667 1.53 1.6 2.69 2.8 3.481 1.2.79 2.605 1.186 4.215 1.186 1.61 0 3.014-.395 4.214-1.186 1.2-.79 2.128-1.95 2.784-3.48.667-1.53 1-3.41 1-5.637ZM74.415 68v-2.906l6.783-6.288a25.705 25.705 0 0 0 1.452-1.51c.397-.447.698-.885.902-1.313a3.26 3.26 0 0 0 .307-1.407c0-.559-.127-1.04-.381-1.444a2.505 2.505 0 0 0-1.042-.94 3.262 3.262 0 0 0-1.498-.336c-.583 0-1.092.118-1.526.354-.434.236-.77.575-1.005 1.016-.236.44-.353.965-.353 1.574h-3.825c0-1.248.283-2.332.847-3.251.565-.92 1.355-1.63 2.373-2.133 1.017-.503 2.19-.755 3.517-.755 1.365 0 2.552.242 3.563.727 1.018.478 1.809 1.142 2.373 1.993.564.85.847 1.826.847 2.925a5.62 5.62 0 0 1-.428 2.133c-.28.702-.779 1.482-1.498 2.339-.72.85-1.734 1.872-3.043 3.064l-2.782 2.73v.13H88V68H74.415Z"/>
</svg>
