<svg xmlns="http://www.w3.org/2000/svg" width="100" height="100" fill="none" viewBox="0 0 100 100">
  <path fill="#000" d="M9 59.872V37h8.947c1.72 0 3.185.331 4.396.994 1.21.655 2.133 1.567 2.768 2.736.642 1.162.963 2.502.963 4.02 0 1.52-.325 2.86-.975 4.02-.65 1.162-1.59 2.067-2.823 2.715-1.225.647-2.71.971-4.451.971h-5.702v-3.875h4.927c.922 0 1.683-.16 2.28-.48.606-.328 1.056-.778 1.352-1.352.302-.58.454-1.247.454-1.998 0-.76-.152-1.423-.454-1.988a3.044 3.044 0 0 0-1.351-1.33c-.606-.32-1.373-.48-2.303-.48h-3.234v18.919H9ZM29.188 37h5.913l6.245 15.367h.266L47.855 37h5.913v22.872h-4.65V44.985h-.188L43.062 59.76h-3.167l-5.868-14.83h-.188v14.942h-4.65V37Zm26.105 26.748v-2.811l6.512-6.082a24.735 24.735 0 0 0 1.394-1.46c.381-.432.67-.856.867-1.27.196-.42.294-.874.294-1.36 0-.541-.122-1.007-.366-1.397a2.412 2.412 0 0 0-1-.91 3.114 3.114 0 0 0-1.439-.325c-.56 0-1.048.114-1.465.342a2.351 2.351 0 0 0-.965.983c-.226.426-.34.934-.34 1.522h-3.67c0-1.207.27-2.255.812-3.144.542-.89 1.301-1.577 2.278-2.063.977-.487 2.102-.73 3.377-.73 1.31 0 2.45.234 3.422.703.976.462 1.736 1.105 2.277 1.928.542.823.813 1.766.813 2.829a5.47 5.47 0 0 1-.41 2.063c-.269.679-.748 1.433-1.439 2.262-.69.823-1.664 1.81-2.921 2.964l-2.671 2.64v.126h7.683v3.19H55.293Zm18.105.234c-.59 0-1.095-.21-1.518-.63a2.114 2.114 0 0 1-.626-1.532c0-.59.209-1.094.626-1.514a2.08 2.08 0 0 1 1.519-.63c.571 0 1.072.21 1.5.63.43.42.644.925.644 1.514 0 .396-.102.76-.304 1.09a2.321 2.321 0 0 1-.777.784 2.034 2.034 0 0 1-1.064.288ZM85.166 64c-1.263 0-2.388-.234-3.377-.703-.983-.468-1.763-1.114-2.34-1.937-.578-.823-.879-1.766-.903-2.83h3.752a2.31 2.31 0 0 0 .894 1.74c.554.444 1.212.667 1.974.667.607 0 1.143-.136 1.608-.406a2.89 2.89 0 0 0 1.099-1.144c.268-.493.402-1.057.402-1.694 0-.649-.137-1.22-.411-1.712a2.917 2.917 0 0 0-1.117-1.153c-.476-.277-1.021-.418-1.635-.424a3.85 3.85 0 0 0-1.563.334c-.5.222-.89.525-1.17.91l-3.44-.622.867-9.731H90.99v3.19h-7.995l-.473 4.622h.107c.322-.457.807-.835 1.456-1.136.65-.3 1.376-.45 2.18-.45 1.102 0 2.084.261 2.948.784a5.622 5.622 0 0 1 2.045 2.153c.5.907.748 1.953.742 3.136.006 1.243-.28 2.348-.858 3.316-.571.96-1.372 1.718-2.403 2.27-1.024.547-2.215.82-3.573.82Z"/>
</svg>
