<svg xmlns="http://www.w3.org/2000/svg" width="100" height="100" fill="none" viewBox="0 0 100 100">
  <g clip-path="url(#a)">
    <path fill="#000" d="M73.583 33.334 50 9.792 26.416 33.334c-6.5 6.5-9.75 15.166-9.75 23.5 0 8.333 3.25 17.125 9.75 23.625A33.292 33.292 0 0 0 50 90.25a33.292 33.292 0 0 0 23.583-9.791c6.5-6.5 9.75-15.292 9.75-23.625 0-8.334-3.25-17-9.75-23.5ZM25 58.334C25.04 50 27.583 44.709 32.333 40L50 21.96l17.666 18.25C72.416 44.875 74.959 50 75 58.334H25Z"/>
  </g>
  <defs>
    <clipPath id="a">
      <path fill="#fff" d="M0 0h100v100H0z"/>
    </clipPath>
  </defs>
</svg>
