<svg xmlns="http://www.w3.org/2000/svg" width="100" height="100" fill="none" viewBox="0 0 100 100">
  <path fill="#000" d="M47.521 44.81h-8.204c-.15-1.051-.456-1.984-.918-2.8a7.138 7.138 0 0 0-1.78-2.113 7.858 7.858 0 0 0-2.509-1.334c-.937-.31-1.954-.464-3.053-.464-1.986 0-3.715.489-5.189 1.465-1.473.964-2.616 2.372-3.427 4.226-.812 1.841-1.218 4.078-1.218 6.71 0 2.706.406 4.98 1.218 6.821.824 1.842 1.973 3.232 3.446 4.17 1.473.94 3.178 1.41 5.114 1.41 1.086 0 2.091-.142 3.015-.427a7.957 7.957 0 0 0 2.492-1.242 7.18 7.18 0 0 0 1.798-2.02c.487-.79.824-1.693 1.011-2.706l8.204.037a14.578 14.578 0 0 1-1.592 5.042c-.836 1.606-1.967 3.046-3.39 4.318-1.411 1.261-3.097 2.262-5.057 3.003-1.949.73-4.152 1.094-6.613 1.094-3.421 0-6.48-.766-9.178-2.299-2.685-1.532-4.807-3.75-6.368-6.654C13.774 58.143 13 54.627 13 50.5c0-4.14.787-7.662 2.36-10.566 1.573-2.904 3.709-5.116 6.406-6.636C24.463 31.766 27.498 31 30.87 31c2.222 0 4.283.309 6.18.927 1.911.618 3.603 1.52 5.077 2.706a13.954 13.954 0 0 1 3.596 4.319c.937 1.705 1.536 3.658 1.798 5.857ZM87 50.5c0 4.14-.793 7.662-2.379 10.566-1.573 2.904-3.721 5.122-6.443 6.654-2.71 1.52-5.757 2.28-9.141 2.28-3.41 0-6.469-.766-9.178-2.299-2.71-1.532-4.852-3.75-6.425-6.654-1.573-2.904-2.36-6.42-2.36-10.547 0-4.14.787-7.662 2.36-10.566 1.573-2.904 3.715-5.116 6.425-6.636C62.569 31.766 65.628 31 69.037 31c3.384 0 6.43.766 9.14 2.298 2.723 1.52 4.87 3.732 6.444 6.636C86.207 42.838 87 46.36 87 50.5Zm-8.223 0c0-2.682-.406-4.943-1.218-6.784-.799-1.842-1.929-3.238-3.39-4.19-1.46-.95-3.172-1.427-5.132-1.427-1.96 0-3.671.476-5.132 1.428-1.462.951-2.598 2.347-3.41 4.189-.799 1.841-1.198 4.102-1.198 6.784 0 2.682.4 4.943 1.199 6.784.811 1.842 1.947 3.238 3.409 4.19 1.46.95 3.171 1.427 5.132 1.427 1.96 0 3.671-.476 5.132-1.428 1.461-.951 2.591-2.347 3.39-4.189.812-1.841 1.218-4.102 1.218-6.784Z"/>
</svg>
