<svg xmlns="http://www.w3.org/2000/svg" width="100" height="100" fill="none" viewBox="0 0 100 100">
  <g clip-path="url(#a)">
    <path fill="#000" d="M75 45.834v8.333h16.667v-8.333H75Zm-8.333 27.541c4 2.959 9.208 6.875 13.333 9.959 1.667-2.209 3.334-4.459 5-6.667-4.125-3.083-9.333-7-13.333-10a933.33 933.33 0 0 1-5 6.708ZM85 23.334c-1.666-2.209-3.333-4.459-5-6.667-4.125 3.083-9.333 7-13.333 10 1.666 2.208 3.333 4.458 5 6.667 4-3 9.208-6.875 13.333-10ZM16.667 37.5c-4.584 0-8.334 3.75-8.334 8.334v8.333c0 4.583 3.75 8.333 8.334 8.333h4.166v16.667h8.334V62.5h4.166L54.168 75V25L33.333 37.5H16.668ZM64.583 50a18.667 18.667 0 0 0-6.25-13.958v27.875c3.834-3.375 6.25-8.375 6.25-13.917Z"/>
  </g>
  <defs>
    <clipPath id="a">
      <path fill="#fff" d="M0 0h100v100H0z"/>
    </clipPath>
  </defs>
</svg>
