<svg xmlns="http://www.w3.org/2000/svg" width="100" height="100" fill="none" viewBox="0 0 100 100">
  <g clip-path="url(#a)">
    <path fill="#000" d="m87.352 31.925-7.895-5.263a20.393 20.393 0 0 0-39.832 6.166v5.843L7.595 78.708a2.719 2.719 0 0 0 2.124 4.417h35.344a35.384 35.384 0 0 0 35.343-35.344V41.08l6.946-4.63a2.72 2.72 0 0 0 0-4.525ZM44.432 54.96 30.84 71.272a2.719 2.719 0 0 1-4.177-3.481l13.593-16.313a2.719 2.719 0 0 1 4.177 3.481Zm18.303-20.772a4.078 4.078 0 1 1 0-8.156 4.078 4.078 0 0 1 0 8.157Z"/>
  </g>
  <defs>
    <clipPath id="a">
      <path fill="#fff" d="M7 7h87v87H7z"/>
    </clipPath>
  </defs>
</svg>
