<svg xmlns="http://www.w3.org/2000/svg" width="100" height="100" fill="none" viewBox="0 0 100 100">
  <path fill="#000" d="M63.193 45.245c0 5.36-1.02 9.919-3.058 13.678-2.023 3.76-4.785 6.631-8.285 8.615-3.485 1.968-7.402 2.952-11.753 2.952-4.384 0-8.317-.992-11.802-2.976-3.484-1.984-6.237-4.855-8.26-8.615C18.012 55.14 17 50.59 17 45.245c0-5.36 1.012-9.919 3.035-13.678 2.023-3.76 4.776-6.624 8.26-8.591C31.78 20.992 35.713 20 40.097 20c4.35 0 8.268.992 11.753 2.976 3.5 1.967 6.261 4.831 8.285 8.59 2.039 3.76 3.058 8.32 3.058 13.679Zm-10.573 0c0-3.472-.521-6.4-1.565-8.783-1.028-2.384-2.48-4.192-4.36-5.423-1.878-1.232-4.078-1.848-6.598-1.848-2.521 0-4.72.616-6.6 1.848-1.878 1.231-3.34 3.04-4.383 5.423-1.027 2.384-1.541 5.311-1.541 8.783 0 3.471.514 6.4 1.541 8.783 1.044 2.383 2.505 4.191 4.384 5.423 1.878 1.232 4.078 1.848 6.599 1.848 2.52 0 4.72-.616 6.599-1.848 1.878-1.232 3.331-3.04 4.359-5.423 1.044-2.384 1.565-5.312 1.565-8.783ZM75.347 75c-1.45 0-2.742-.248-3.875-.745-1.127-.503-2.017-1.194-2.671-2.071-.648-.884-.981-1.903-1-3.058h4.234c.026.484.184.91.476 1.277.297.362.693.642 1.185.842.492.2 1.045.3 1.66.3.641 0 1.208-.113 1.7-.338a2.786 2.786 0 0 0 1.156-.94c.278-.4.417-.86.417-1.383 0-.529-.148-.997-.446-1.403-.292-.413-.713-.736-1.263-.968-.544-.232-1.191-.348-1.942-.348h-1.855v-3.078h1.855c.634 0 1.194-.11 1.68-.329.492-.219.874-.522 1.146-.91.272-.393.408-.85.408-1.373 0-.497-.12-.933-.36-1.307a2.37 2.37 0 0 0-.99-.89c-.421-.213-.913-.32-1.477-.32-.57 0-1.09.104-1.563.31-.473.2-.852.487-1.136.861a2.262 2.262 0 0 0-.457 1.317h-4.03c.019-1.142.346-2.149.98-3.02.635-.87 1.49-1.551 2.564-2.041 1.082-.497 2.302-.746 3.662-.746 1.373 0 2.574.249 3.603.745 1.03.497 1.83 1.168 2.4 2.013a4.82 4.82 0 0 1 .854 2.826c.006 1.11-.34 2.035-1.04 2.777-.692.742-1.596 1.213-2.71 1.413v.155c1.464.187 2.578.694 3.342 1.52.77.819 1.152 1.845 1.146 3.077.006 1.129-.32 2.132-.981 3.01-.654.877-1.557 1.567-2.71 2.07-1.152.503-2.473.755-3.962.755Z"/>
</svg>
