<svg xmlns="http://www.w3.org/2000/svg" width="100" height="100" fill="none" viewBox="0 0 100 100">
  <path fill="#000" d="M6 61.639V33h11.31c2.174 0 4.026.415 5.556 1.245 1.53.82 2.697 1.962 3.5 3.426.811 1.454 1.218 3.132 1.218 5.034 0 1.902-.411 3.58-1.232 5.034-.821 1.454-2.011 2.587-3.57 3.398-1.549.811-3.424 1.217-5.626 1.217H9.947V47.5h6.229c1.166 0 2.127-.2 2.883-.601.765-.41 1.335-.974 1.708-1.692.383-.727.574-1.562.574-2.503 0-.951-.192-1.78-.574-2.49-.373-.717-.943-1.272-1.708-1.663-.765-.401-1.735-.602-2.911-.602H12.06V61.64H6ZM31.52 33h7.475l7.894 19.242h.336L55.119 33h7.475v28.639h-5.88v-18.64h-.237l-7.419 18.5h-4.003l-7.418-18.57h-.238v18.71H31.52V33Zm43.062 10.387v23.105h-4.89V48.023h-.136L64.26 51.34v-4.332l5.725-3.621h4.597ZM85.66 67c-1.942-.007-3.613-.485-5.013-1.433-1.393-.947-2.466-2.32-3.219-4.118-.745-1.797-1.114-3.96-1.106-6.487 0-2.52.372-4.667 1.118-6.442.752-1.775 1.825-3.125 3.218-4.05 1.4-.933 3.068-1.4 5.003-1.4s3.598.467 4.991 1.4c1.4.932 2.477 2.286 3.23 4.061.753 1.768 1.125 3.911 1.118 6.431 0 2.535-.376 4.7-1.13 6.498-.745 1.798-1.814 3.17-3.207 4.119-1.392.947-3.06 1.421-5.002 1.421Zm0-4.05c1.326 0 2.383-.666 3.174-1.997.79-1.332 1.182-3.328 1.174-5.991 0-1.753-.18-3.212-.542-4.377-.353-1.166-.858-2.043-1.513-2.63a3.302 3.302 0 0 0-2.292-.88c-1.318 0-2.372.659-3.162 1.975s-1.19 3.287-1.197 5.912c0 1.775.177 3.257.53 4.445.362 1.181.87 2.069 1.525 2.663.655.586 1.423.88 2.304.88Z"/>
</svg>
