<svg xmlns="http://www.w3.org/2000/svg" width="100" height="100" fill="none" viewBox="0 0 100 100">
  <path fill="#000" d="M38.203 33.407v29.788h-5.502L19.59 44.447h-.22v18.748H13V33.407h5.59l13.007 18.734h.265V33.407h6.341Zm32.412 14.894c0 3.248-.623 6.012-1.868 8.29-1.236 2.28-2.923 4.02-5.062 5.222-2.128 1.193-4.521 1.789-7.18 1.789-2.677 0-5.08-.601-7.209-1.804-2.128-1.202-3.81-2.942-5.047-5.221-1.235-2.279-1.853-5.037-1.853-8.276 0-3.248.618-6.012 1.853-8.29 1.236-2.28 2.919-4.015 5.047-5.208C51.425 33.602 53.828 33 56.506 33c2.658 0 5.05.601 7.18 1.803 2.138 1.193 3.825 2.929 5.06 5.208 1.246 2.278 1.87 5.042 1.87 8.29Zm-6.459 0c0-2.104-.319-3.879-.956-5.323-.628-1.445-1.516-2.54-2.663-3.288-1.148-.746-2.492-1.12-4.032-1.12s-2.883.374-4.03 1.12c-1.149.747-2.041 1.843-2.679 3.288-.627 1.444-.941 3.219-.941 5.323 0 2.104.314 3.879.941 5.323.638 1.445 1.53 2.54 2.678 3.287 1.148.747 2.492 1.12 4.031 1.12 1.54 0 2.884-.373 4.032-1.12 1.147-.746 2.035-1.842 2.663-3.287.637-1.444.956-3.219.956-5.323ZM74.006 67v-2.745l6.488-5.939a24.392 24.392 0 0 0 1.389-1.425c.38-.422.667-.836.863-1.24.196-.411.294-.854.294-1.329 0-.528-.122-.982-.365-1.364a2.386 2.386 0 0 0-.997-.888 3.154 3.154 0 0 0-1.433-.317c-.558 0-1.044.111-1.46.334a2.316 2.316 0 0 0-.96.96c-.226.416-.339.911-.339 1.486h-3.658c0-1.179.27-2.202.81-3.07.54-.868 1.296-1.54 2.27-2.015.973-.475 2.094-.713 3.364-.713 1.305 0 2.441.23 3.408.687.973.451 1.73 1.079 2.27 1.882.54.804.81 1.725.81 2.763a5.25 5.25 0 0 1-.41 2.015c-.267.663-.744 1.399-1.433 2.208-.688.803-1.658 1.768-2.91 2.895l-2.66 2.577v.123H87V67H74.006Z"/>
</svg>
