<svg xmlns="http://www.w3.org/2000/svg" width="100" height="100" fill="none" viewBox="0 0 100 100">
  <g clip-path="url(#a)">
    <path fill="#000" d="M41.666 50c-4.583 0-8.333 3.75-8.333 8.334 0 4.583 3.75 8.333 8.334 8.333 4.583 0 8.333-3.75 8.333-8.333C50 53.75 46.25 50 41.666 50ZM25 33.334c-4.584 0-8.334 3.75-8.334 8.333S20.416 50 25 50c4.583 0 8.333-3.75 8.333-8.333s-3.75-8.333-8.333-8.333Zm0 33.333c-4.584 0-8.334 3.75-8.334 8.333 0 4.584 3.75 8.334 8.334 8.334 4.583 0 8.333-3.75 8.333-8.334 0-4.583-3.75-8.333-8.333-8.333Zm50-33.333c4.583 0 8.333-3.75 8.333-8.334 0-4.583-3.75-8.333-8.333-8.333-4.584 0-8.334 3.75-8.334 8.333 0 4.584 3.75 8.334 8.334 8.334ZM58.333 66.667C53.75 66.667 50 70.417 50 75c0 4.584 3.75 8.334 8.333 8.334 4.584 0 8.334-3.75 8.334-8.334 0-4.583-3.75-8.333-8.334-8.333ZM75 50c-4.584 0-8.334 3.75-8.334 8.334 0 4.583 3.75 8.333 8.334 8.333 4.583 0 8.333-3.75 8.333-8.333C83.333 53.75 79.583 50 75 50ZM58.333 33.334c-4.583 0-8.333 3.75-8.333 8.333S53.75 50 58.333 50c4.584 0 8.334-3.75 8.334-8.333s-3.75-8.333-8.334-8.333ZM41.667 16.667c-4.584 0-8.334 3.75-8.334 8.333 0 4.584 3.75 8.334 8.334 8.334C46.25 33.334 50 29.584 50 25c0-4.583-3.75-8.333-8.334-8.333Z"/>
  </g>
  <defs>
    <clipPath id="a">
      <path fill="#fff" d="M0 0h100v100H0z"/>
    </clipPath>
  </defs>
</svg>
